<mxfile host="Electron" agent="Mozilla/5.0 (Windows NT 10.0; Win64; x64) AppleWebKit/537.36 (KHTML, like Gecko) draw.io/26.0.16 Chrome/132.0.6834.196 Electron/34.2.0 Safari/537.36" version="26.0.16">
  <diagram name="Page-1" id="e7e014a7-5840-1c2e-5031-d8a46d1fe8dd">
    <mxGraphModel dx="464" dy="229" grid="1" gridSize="10" guides="1" tooltips="1" connect="1" arrows="1" fold="1" page="1" pageScale="1" pageWidth="1169" pageHeight="826" background="none" math="0" shadow="0">
      <root>
        <mxCell id="0" />
        <mxCell id="1" parent="0" />
        <mxCell id="KLnUujt1nT2IAc9DffuR-41" value="Admin" style="swimlane;whiteSpace=wrap" parent="1" vertex="1">
          <mxGeometry x="300" y="60" width="340" height="700" as="geometry" />
        </mxCell>
        <mxCell id="G4w_2AoGDEeefwEYO9uC-1" value="" style="ellipse;html=1;shape=startState;fillColor=#000000;strokeColor=#ff0000;" vertex="1" parent="KLnUujt1nT2IAc9DffuR-41">
          <mxGeometry x="151" y="43" width="30" height="30" as="geometry" />
        </mxCell>
        <mxCell id="G4w_2AoGDEeefwEYO9uC-2" value="" style="edgeStyle=orthogonalEdgeStyle;html=1;verticalAlign=bottom;endArrow=open;endSize=8;strokeColor=#ff0000;rounded=0;" edge="1" parent="KLnUujt1nT2IAc9DffuR-41">
          <mxGeometry relative="1" as="geometry">
            <mxPoint x="166" y="120" as="targetPoint" />
            <mxPoint x="166" y="70" as="sourcePoint" />
          </mxGeometry>
        </mxCell>
        <mxCell id="G4w_2AoGDEeefwEYO9uC-3" value="Chọn chức năng chỉnh sửa thông tin đơn hàng" style="rounded=1;whiteSpace=wrap;html=1;" vertex="1" parent="KLnUujt1nT2IAc9DffuR-41">
          <mxGeometry x="110" y="120" width="105" height="50" as="geometry" />
        </mxCell>
        <mxCell id="G4w_2AoGDEeefwEYO9uC-9" value="Yêu cầu đăng nhập" style="rounded=1;whiteSpace=wrap;html=1;" vertex="1" parent="KLnUujt1nT2IAc9DffuR-41">
          <mxGeometry x="110" y="220" width="100" height="50" as="geometry" />
        </mxCell>
        <mxCell id="G4w_2AoGDEeefwEYO9uC-16" value="Nhập thông tin của đơn hàng cần chỉnh sửa" style="rounded=1;whiteSpace=wrap;html=1;" vertex="1" parent="KLnUujt1nT2IAc9DffuR-41">
          <mxGeometry x="110" y="320" width="120" height="60" as="geometry" />
        </mxCell>
        <mxCell id="G4w_2AoGDEeefwEYO9uC-22" value="Thông báo lỗi và yêu cầu nhập lại thông tin" style="rounded=1;whiteSpace=wrap;html=1;" vertex="1" parent="KLnUujt1nT2IAc9DffuR-41">
          <mxGeometry x="133" y="475" width="97" height="50" as="geometry" />
        </mxCell>
        <mxCell id="G4w_2AoGDEeefwEYO9uC-24" value="" style="endArrow=classic;html=1;rounded=0;entryX=0.403;entryY=0.968;entryDx=0;entryDy=0;exitX=0.25;exitY=0;exitDx=0;exitDy=0;entryPerimeter=0;" edge="1" parent="KLnUujt1nT2IAc9DffuR-41" source="G4w_2AoGDEeefwEYO9uC-22" target="G4w_2AoGDEeefwEYO9uC-16">
          <mxGeometry width="50" height="50" relative="1" as="geometry">
            <mxPoint x="30" y="490" as="sourcePoint" />
            <mxPoint x="80" y="440" as="targetPoint" />
          </mxGeometry>
        </mxCell>
        <mxCell id="KLnUujt1nT2IAc9DffuR-43" value="System" style="swimlane;whiteSpace=wrap" parent="1" vertex="1">
          <mxGeometry x="640" y="63" width="340" height="700" as="geometry" />
        </mxCell>
        <mxCell id="G4w_2AoGDEeefwEYO9uC-5" value="Kiểm tra đăng nhập" style="rounded=1;whiteSpace=wrap;html=1;" vertex="1" parent="KLnUujt1nT2IAc9DffuR-43">
          <mxGeometry x="60" y="115" width="100" height="55" as="geometry" />
        </mxCell>
        <mxCell id="G4w_2AoGDEeefwEYO9uC-6" value="Tài khoản" style="rounded=0;whiteSpace=wrap;html=1;" vertex="1" parent="KLnUujt1nT2IAc9DffuR-43">
          <mxGeometry x="180" y="50" width="100" height="45" as="geometry" />
        </mxCell>
        <mxCell id="G4w_2AoGDEeefwEYO9uC-8" value="" style="html=1;labelBackgroundColor=#ffffff;startArrow=none;startFill=0;startSize=6;endArrow=classic;endFill=1;endSize=6;jettySize=auto;orthogonalLoop=1;strokeWidth=1;dashed=1;fontSize=14;rounded=0;entryX=0.5;entryY=0;entryDx=0;entryDy=0;exitX=0;exitY=0.5;exitDx=0;exitDy=0;" edge="1" parent="KLnUujt1nT2IAc9DffuR-43" source="G4w_2AoGDEeefwEYO9uC-6" target="G4w_2AoGDEeefwEYO9uC-5">
          <mxGeometry width="60" height="60" relative="1" as="geometry">
            <mxPoint x="20" y="110" as="sourcePoint" />
            <mxPoint x="80" y="50" as="targetPoint" />
          </mxGeometry>
        </mxCell>
        <mxCell id="G4w_2AoGDEeefwEYO9uC-11" value="" style="rhombus;whiteSpace=wrap;html=1;" vertex="1" parent="KLnUujt1nT2IAc9DffuR-43">
          <mxGeometry x="70" y="217.5" width="80" height="55" as="geometry" />
        </mxCell>
        <mxCell id="G4w_2AoGDEeefwEYO9uC-12" value="" style="endArrow=classic;html=1;rounded=0;entryX=0.5;entryY=0;entryDx=0;entryDy=0;exitX=0.5;exitY=1;exitDx=0;exitDy=0;" edge="1" parent="KLnUujt1nT2IAc9DffuR-43" source="G4w_2AoGDEeefwEYO9uC-5" target="G4w_2AoGDEeefwEYO9uC-11">
          <mxGeometry width="50" height="50" relative="1" as="geometry">
            <mxPoint x="180" y="230" as="sourcePoint" />
            <mxPoint x="230" y="180" as="targetPoint" />
          </mxGeometry>
        </mxCell>
        <mxCell id="G4w_2AoGDEeefwEYO9uC-18" value="Kiểm tra thông tin" style="rounded=1;whiteSpace=wrap;html=1;" vertex="1" parent="KLnUujt1nT2IAc9DffuR-43">
          <mxGeometry x="70" y="390" width="110" height="50" as="geometry" />
        </mxCell>
        <mxCell id="G4w_2AoGDEeefwEYO9uC-19" value="" style="rhombus;whiteSpace=wrap;html=1;" vertex="1" parent="KLnUujt1nT2IAc9DffuR-43">
          <mxGeometry x="87.5" y="470" width="75" height="60" as="geometry" />
        </mxCell>
        <mxCell id="G4w_2AoGDEeefwEYO9uC-20" value="" style="endArrow=classic;html=1;rounded=0;entryX=0.5;entryY=0;entryDx=0;entryDy=0;exitX=0.5;exitY=1;exitDx=0;exitDy=0;" edge="1" parent="KLnUujt1nT2IAc9DffuR-43" source="G4w_2AoGDEeefwEYO9uC-18" target="G4w_2AoGDEeefwEYO9uC-19">
          <mxGeometry width="50" height="50" relative="1" as="geometry">
            <mxPoint x="110" y="610" as="sourcePoint" />
            <mxPoint x="160" y="560" as="targetPoint" />
          </mxGeometry>
        </mxCell>
        <mxCell id="G4w_2AoGDEeefwEYO9uC-27" value="Đúng" style="text;html=1;align=center;verticalAlign=middle;resizable=0;points=[];autosize=1;strokeColor=none;fillColor=none;" vertex="1" parent="KLnUujt1nT2IAc9DffuR-43">
          <mxGeometry x="110" y="263" width="50" height="30" as="geometry" />
        </mxCell>
        <mxCell id="G4w_2AoGDEeefwEYO9uC-30" value="Đúng" style="text;html=1;align=center;verticalAlign=middle;resizable=0;points=[];autosize=1;strokeColor=none;fillColor=none;" vertex="1" parent="KLnUujt1nT2IAc9DffuR-43">
          <mxGeometry x="125" y="520" width="50" height="30" as="geometry" />
        </mxCell>
        <mxCell id="G4w_2AoGDEeefwEYO9uC-31" value="Cập nhật thông tin đơn hàng" style="rounded=1;whiteSpace=wrap;html=1;" vertex="1" parent="KLnUujt1nT2IAc9DffuR-43">
          <mxGeometry x="72.5" y="570" width="105" height="40" as="geometry" />
        </mxCell>
        <mxCell id="G4w_2AoGDEeefwEYO9uC-26" value="" style="endArrow=classic;html=1;rounded=0;exitX=0.5;exitY=1;exitDx=0;exitDy=0;entryX=0.5;entryY=0;entryDx=0;entryDy=0;" edge="1" parent="KLnUujt1nT2IAc9DffuR-43" source="G4w_2AoGDEeefwEYO9uC-19" target="G4w_2AoGDEeefwEYO9uC-31">
          <mxGeometry width="50" height="50" relative="1" as="geometry">
            <mxPoint x="-210" y="630" as="sourcePoint" />
            <mxPoint x="125" y="570" as="targetPoint" />
          </mxGeometry>
        </mxCell>
        <mxCell id="G4w_2AoGDEeefwEYO9uC-32" value="Đơn hàng" style="rounded=0;whiteSpace=wrap;html=1;" vertex="1" parent="KLnUujt1nT2IAc9DffuR-43">
          <mxGeometry x="230" y="510" width="70" height="40" as="geometry" />
        </mxCell>
        <mxCell id="G4w_2AoGDEeefwEYO9uC-33" value="" style="html=1;labelBackgroundColor=#ffffff;startArrow=none;startFill=0;startSize=6;endArrow=classic;endFill=1;endSize=6;jettySize=auto;orthogonalLoop=1;strokeWidth=1;dashed=1;fontSize=14;rounded=0;entryX=0;entryY=0.5;entryDx=0;entryDy=0;exitX=1;exitY=0.5;exitDx=0;exitDy=0;" edge="1" parent="KLnUujt1nT2IAc9DffuR-43" source="G4w_2AoGDEeefwEYO9uC-31" target="G4w_2AoGDEeefwEYO9uC-32">
          <mxGeometry width="60" height="60" relative="1" as="geometry">
            <mxPoint x="280" y="420" as="sourcePoint" />
            <mxPoint x="210" y="462" as="targetPoint" />
          </mxGeometry>
        </mxCell>
        <mxCell id="G4w_2AoGDEeefwEYO9uC-34" value="Thông báo thành công" style="rounded=1;whiteSpace=wrap;html=1;" vertex="1" parent="KLnUujt1nT2IAc9DffuR-43">
          <mxGeometry x="180" y="630" width="90" height="40" as="geometry" />
        </mxCell>
        <mxCell id="G4w_2AoGDEeefwEYO9uC-35" value="" style="endArrow=classic;html=1;rounded=0;exitX=1;exitY=0.5;exitDx=0;exitDy=0;" edge="1" parent="KLnUujt1nT2IAc9DffuR-43" source="G4w_2AoGDEeefwEYO9uC-34">
          <mxGeometry width="50" height="50" relative="1" as="geometry">
            <mxPoint x="280" y="660" as="sourcePoint" />
            <mxPoint x="320" y="600" as="targetPoint" />
            <Array as="points">
              <mxPoint x="320" y="650" />
            </Array>
          </mxGeometry>
        </mxCell>
        <mxCell id="G4w_2AoGDEeefwEYO9uC-36" value="" style="ellipse;html=1;shape=endState;fillColor=#000000;strokeColor=#ff0000;" vertex="1" parent="KLnUujt1nT2IAc9DffuR-43">
          <mxGeometry x="300" y="570" width="30" height="30" as="geometry" />
        </mxCell>
        <mxCell id="G4w_2AoGDEeefwEYO9uC-37" value="" style="endArrow=classic;html=1;rounded=0;entryX=0;entryY=0.5;entryDx=0;entryDy=0;exitX=0.5;exitY=1;exitDx=0;exitDy=0;" edge="1" parent="KLnUujt1nT2IAc9DffuR-43" source="G4w_2AoGDEeefwEYO9uC-31" target="G4w_2AoGDEeefwEYO9uC-34">
          <mxGeometry width="50" height="50" relative="1" as="geometry">
            <mxPoint x="80" y="700" as="sourcePoint" />
            <mxPoint x="130" y="650" as="targetPoint" />
          </mxGeometry>
        </mxCell>
        <mxCell id="G4w_2AoGDEeefwEYO9uC-39" value="Reset form" style="rounded=1;whiteSpace=wrap;html=1;" vertex="1" parent="KLnUujt1nT2IAc9DffuR-43">
          <mxGeometry x="17.5" y="635" width="62.5" height="30" as="geometry" />
        </mxCell>
        <mxCell id="G4w_2AoGDEeefwEYO9uC-38" value="C.Nhật T.Tin&lt;div&gt;Đơn hàng&lt;/div&gt;" style="endArrow=classic;html=1;rounded=0;exitX=0;exitY=0.5;exitDx=0;exitDy=0;entryX=1;entryY=0.5;entryDx=0;entryDy=0;" edge="1" parent="KLnUujt1nT2IAc9DffuR-43" source="G4w_2AoGDEeefwEYO9uC-34" target="G4w_2AoGDEeefwEYO9uC-39">
          <mxGeometry x="0.2" y="17" width="50" height="50" relative="1" as="geometry">
            <mxPoint x="-140" y="660" as="sourcePoint" />
            <mxPoint x="100" y="650" as="targetPoint" />
            <mxPoint as="offset" />
          </mxGeometry>
        </mxCell>
        <mxCell id="G4w_2AoGDEeefwEYO9uC-4" value="" style="endArrow=classic;html=1;rounded=0;exitX=1;exitY=0.5;exitDx=0;exitDy=0;entryX=0;entryY=0.5;entryDx=0;entryDy=0;" edge="1" parent="1" source="G4w_2AoGDEeefwEYO9uC-3" target="G4w_2AoGDEeefwEYO9uC-5">
          <mxGeometry width="50" height="50" relative="1" as="geometry">
            <mxPoint x="520" y="240" as="sourcePoint" />
            <mxPoint x="680" y="200" as="targetPoint" />
          </mxGeometry>
        </mxCell>
        <mxCell id="G4w_2AoGDEeefwEYO9uC-10" value="" style="endArrow=classic;html=1;rounded=0;exitX=1;exitY=0.5;exitDx=0;exitDy=0;entryX=0;entryY=0.5;entryDx=0;entryDy=0;" edge="1" parent="1" source="G4w_2AoGDEeefwEYO9uC-9" target="G4w_2AoGDEeefwEYO9uC-5">
          <mxGeometry width="50" height="50" relative="1" as="geometry">
            <mxPoint x="550" y="320" as="sourcePoint" />
            <mxPoint x="600" y="270" as="targetPoint" />
          </mxGeometry>
        </mxCell>
        <mxCell id="G4w_2AoGDEeefwEYO9uC-13" value="Sai" style="text;html=1;align=center;verticalAlign=middle;resizable=0;points=[];autosize=1;strokeColor=none;fillColor=none;" vertex="1" parent="1">
          <mxGeometry x="700" y="258" width="40" height="30" as="geometry" />
        </mxCell>
        <mxCell id="G4w_2AoGDEeefwEYO9uC-14" value="" style="endArrow=classic;html=1;rounded=0;entryX=1;entryY=0.5;entryDx=0;entryDy=0;exitX=0;exitY=0.5;exitDx=0;exitDy=0;" edge="1" parent="1" source="G4w_2AoGDEeefwEYO9uC-11" target="G4w_2AoGDEeefwEYO9uC-9">
          <mxGeometry width="50" height="50" relative="1" as="geometry">
            <mxPoint x="420" y="430" as="sourcePoint" />
            <mxPoint x="470" y="380" as="targetPoint" />
          </mxGeometry>
        </mxCell>
        <mxCell id="G4w_2AoGDEeefwEYO9uC-15" value="" style="endArrow=classic;html=1;rounded=0;exitX=0.5;exitY=1;exitDx=0;exitDy=0;entryX=1;entryY=0.5;entryDx=0;entryDy=0;" edge="1" parent="1" source="G4w_2AoGDEeefwEYO9uC-11" target="G4w_2AoGDEeefwEYO9uC-16">
          <mxGeometry width="50" height="50" relative="1" as="geometry">
            <mxPoint x="410" y="430" as="sourcePoint" />
            <mxPoint x="750" y="400" as="targetPoint" />
            <Array as="points">
              <mxPoint x="750" y="410" />
            </Array>
          </mxGeometry>
        </mxCell>
        <mxCell id="G4w_2AoGDEeefwEYO9uC-17" value="" style="endArrow=classic;html=1;rounded=0;exitX=0.5;exitY=1;exitDx=0;exitDy=0;entryX=0;entryY=0.5;entryDx=0;entryDy=0;" edge="1" parent="1" source="G4w_2AoGDEeefwEYO9uC-16" target="G4w_2AoGDEeefwEYO9uC-18">
          <mxGeometry width="50" height="50" relative="1" as="geometry">
            <mxPoint x="420" y="530" as="sourcePoint" />
            <mxPoint x="470" y="490" as="targetPoint" />
            <Array as="points">
              <mxPoint x="470" y="475" />
            </Array>
          </mxGeometry>
        </mxCell>
        <mxCell id="G4w_2AoGDEeefwEYO9uC-23" value="" style="endArrow=classic;html=1;rounded=0;entryX=1;entryY=0.5;entryDx=0;entryDy=0;exitX=0;exitY=0.5;exitDx=0;exitDy=0;" edge="1" parent="1" source="G4w_2AoGDEeefwEYO9uC-19" target="G4w_2AoGDEeefwEYO9uC-22">
          <mxGeometry width="50" height="50" relative="1" as="geometry">
            <mxPoint x="520" y="620" as="sourcePoint" />
            <mxPoint x="570" y="570" as="targetPoint" />
          </mxGeometry>
        </mxCell>
        <mxCell id="G4w_2AoGDEeefwEYO9uC-25" value="Sai" style="text;html=1;align=center;verticalAlign=middle;resizable=0;points=[];autosize=1;strokeColor=none;fillColor=none;" vertex="1" parent="1">
          <mxGeometry x="700" y="528" width="40" height="30" as="geometry" />
        </mxCell>
        <mxCell id="G4w_2AoGDEeefwEYO9uC-40" value="" style="endArrow=classic;html=1;rounded=0;exitX=0;exitY=0.5;exitDx=0;exitDy=0;entryX=0;entryY=1;entryDx=0;entryDy=0;" edge="1" parent="1" source="G4w_2AoGDEeefwEYO9uC-39" target="G4w_2AoGDEeefwEYO9uC-16">
          <mxGeometry width="50" height="50" relative="1" as="geometry">
            <mxPoint x="470" y="720" as="sourcePoint" />
            <mxPoint x="520" y="670" as="targetPoint" />
            <Array as="points">
              <mxPoint x="410" y="710" />
            </Array>
          </mxGeometry>
        </mxCell>
      </root>
    </mxGraphModel>
  </diagram>
</mxfile>
